{
  "accessors": [
    {
      "bufferView": 2,
      "componentType": 5126,
      "count": 988,
      "max": [
        168.59609985351563,
        200.20263671875,
        509.40606689453125
      ],
      "min": [
        -173.22164916992188,
        -169.87042236328125,
        103.78668975830078
      ],
      "type": "VEC3"
    },
    {
      "bufferView": 2,
      "byteOffset": 11856,
      "componentType": 5126,
      "count": 988,
      "max": [
        0.9877801537513733,
        0.9755054116249084,
        0.929241418838501
      ],
      "min": [
        -0.9716991782188416,
        -0.9872252345085144,
        -0.9560505151748657
      ],
      "type": "VEC3"
    },
    {
      "bufferView": 3,
      "componentType": 5126,
      "count": 988,
      "max": [
        0.9950972199440002,
        0.9997584819793701,
        0.9915283918380737,
        1.0
      ],
      "min": [
        -0.9970023036003113,
        -0.9999769926071167,
        -0.9956532716751099,
        -1.0
      ],
      "type": "VEC4"
    },
    {
      "bufferView": 1,
      "componentType": 5126,
      "count": 988,
      "max": [
        1.0,
        1.0
      ],
      "min": [
        0.0,
        0.0
      ],
      "type": "VEC2"
    },
    {
      "bufferView": 1,
      "byteOffset": 7904,
      "componentType": 5126,
      "count": 988,
      "max": [
        1.0,
        1.0
      ],
      "min": [
        0.0,
        0.0
      ],
      "type": "VEC2"
    },
    {
      "bufferView": 1,
      "byteOffset": 15808,
      "componentType": 5126,
      "count": 988,
      "max": [
        1.0,
        1.0
      ],
      "min": [
        0.0,
        0.0
      ],
      "type": "VEC2"
    },
    {
      "bufferView": 0,
      "componentType": 5125,
      "count": 2964,
      "type": "SCALAR"
    },
    {
      "bufferView": 2,
      "byteOffset": 23712,
      "componentType": 5126,
      "count": 1178,
      "max": [
        85.11678314208984,
        75.0732650756836,
        356.2833557128906
      ],
      "min": [
        -65.40177917480469,
        -41.24197006225586,
        -26.211090087890625
      ],
      "type": "VEC3"
    },
    {
      "bufferView": 2,
      "byteOffset": 37848,
      "componentType": 5126,
      "count": 1178,
      "max": [
        0.9989513158798218,
        0.9998489618301392,
        0.9956082105636597
      ],
      "min": [
        -0.9999092221260071,
        -0.998269259929657,
        -0.9982888102531433
      ],
      "type": "VEC3"
    },
    {
      "bufferView": 3,
      "byteOffset": 15808,
      "componentType": 5126,
      "count": 1178,
      "max": [
        0.9998714327812195,
        0.9998447895050049,
        0.9994998574256897,
        1.0
      ],
      "min": [
        -0.9998213052749634,
        -0.9995706081390381,
        -0.9907013773918152,
        1.0
      ],
      "type": "VEC4"
    },
    {
      "bufferView": 1,
      "byteOffset": 23712,
      "componentType": 5126,
      "count": 1178,
      "max": [
        0.9972501993179321,
        0.9932190775871277
      ],
      "min": [
        0.009267494082450867,
        0.01991361379623413
      ],
      "type": "VEC2"
    },
    {
      "bufferView": 1,
      "byteOffset": 33136,
      "componentType": 5126,
      "count": 1178,
      "max": [
        0.9972501993179321,
        0.9932190775871277
      ],
      "min": [
        0.009267494082450867,
        0.01991361379623413
      ],
      "type": "VEC2"
    },
    {
      "bufferView": 0,
      "byteOffset": 11856,
      "componentType": 5125,
      "count": 5358,
      "type": "SCALAR"
    }
  ],
  "asset": {
    "extras": {
      "author": "alkalor (https://sketchfab.com/alkalor)",
      "license": "CC-BY-4.0 (http://creativecommons.org/licenses/by/4.0/)",
      "source": "https://sketchfab.com/3d-models/low-poly-tree-615cb8f099cb4da1a3d4289bc05aeeb3",
      "title": "Low_Poly tree"
    },
    "generator": "Sketchfab-12.67.0",
    "version": "2.0"
  },
  "bufferViews": [
    {
      "buffer": 0,
      "byteLength": 33288,
      "name": "floatBufferViews",
      "target": 34963
    },
    {
      "buffer": 0,
      "byteLength": 42560,
      "byteOffset": 33288,
      "byteStride": 8,
      "name": "floatBufferViews",
      "target": 34962
    },
    {
      "buffer": 0,
      "byteLength": 51984,
      "byteOffset": 75848,
      "byteStride": 12,
      "name": "floatBufferViews",
      "target": 34962
    },
    {
      "buffer": 0,
      "byteLength": 34656,
      "byteOffset": 127832,
      "byteStride": 16,
      "name": "floatBufferViews",
      "target": 34962
    }
  ],
  "buffers": [
    {
      "byteLength": 162488,
      "uri": "scene.bin"
    }
  ],
  "images": [
    {
      "uri": "textures/Ramas_baseColor.png"
    },
    {
      "uri": "textures/Ramas_normal.png"
    },
    {
      "uri": "textures/Tronco_baseColor.png"
    },
    {
      "uri": "textures/Tronco_normal.png"
    }
  ],
  "materials": [
    {
      "alphaCutoff": 0.9163490853658537,
      "alphaMode": "MASK",
      "doubleSided": true,
      "name": "Ramas",
      "normalTexture": {
        "index": 1
      },
      "pbrMetallicRoughness": {
        "baseColorTexture": {
          "index": 0
        },
        "metallicFactor": 0.0,
        "roughnessFactor": 0.5078125
      }
    },
    {
      "doubleSided": true,
      "name": "Tronco",
      "normalTexture": {
        "index": 3
      },
      "pbrMetallicRoughness": {
        "baseColorTexture": {
          "index": 2
        },
        "metallicFactor": 0.0,
        "roughnessFactor": 0.7578125
      }
    }
  ],
  "meshes": [
    {
      "name": "Plane006_Ramas_0",
      "primitives": [
        {
          "attributes": {
            "NORMAL": 1,
            "POSITION": 0,
            "TANGENT": 2,
            "TEXCOORD_0": 3,
            "TEXCOORD_1": 4,
            "TEXCOORD_2": 5
          },
          "indices": 6,
          "material": 0,
          "mode": 4
        }
      ]
    },
    {
      "name": "Plane006_Tronco_0",
      "primitives": [
        {
          "attributes": {
            "NORMAL": 8,
            "POSITION": 7,
            "TANGENT": 9,
            "TEXCOORD_0": 10,
            "TEXCOORD_1": 11
          },
          "indices": 12,
          "material": 1,
          "mode": 4
        }
      ]
    }
  ],
  "nodes": [
    {
      "children": [
        1
      ],
      "matrix": [
        1.0,
        0.0,
        0.0,
        0.0,
        0.0,
        2.220446049250313e-16,
        -1.0,
        0.0,
        0.0,
        1.0,
        2.220446049250313e-16,
        0.0,
        0.0,
        0.0,
        0.0,
        1.0
      ],
      "name": "Sketchfab_model"
    },
    {
      "children": [
        2
      ],
      "matrix": [
        1.0,
        0.0,
        0.0,
        0.0,
        0.0,
        0.0,
        1.0,
        0.0,
        0.0,
        -1.0,
        0.0,
        0.0,
        0.0,
        0.0,
        0.0,
        1.0
      ],
      "name": "8ef6def4be344f988e5904c5a01c85f1.fbx"
    },
    {
      "children": [
        3
      ],
      "name": "RootNode"
    },
    {
      "children": [
        4,
        5
      ],
      "matrix": [
        0.9999999999999847,
        3.970466940254533e-23,
        -1.7484555314694902e-07,
        0.0,
        -1.7484555314694902e-07,
        3.3306690738754696e-16,
        -0.9999999999999847,
        0.0,
        3.970466940254533e-23,
        1.0,
        3.3306690738754696e-16,
        0.0,
        0.0,
        0.0,
        0.0,
        1.0
      ],
      "name": "Plane006"
    },
    {
      "mesh": 0,
      "name": "Plane006_Ramas_0"
    },
    {
      "mesh": 1,
      "name": "Plane006_Tronco_0"
    }
  ],
  "samplers": [
    {
      "magFilter": 9729,
      "minFilter": 9987,
      "wrapS": 10497,
      "wrapT": 10497
    },
    {
      "magFilter": 9729,
      "minFilter": 9987,
      "wrapS": 33071,
      "wrapT": 33071
    }
  ],
  "scene": 0,
  "scenes": [
    {
      "name": "Sketchfab_Scene",
      "nodes": [
        0
      ]
    }
  ],
  "textures": [
    {
      "sampler": 0,
      "source": 0
    },
    {
      "sampler": 0,
      "source": 1
    },
    {
      "sampler": 1,
      "source": 2
    },
    {
      "sampler": 0,
      "source": 3
    }
  ]
}
